<svg xmlns="http://www.w3.org/2000/svg" xmlns:xlink="http://www.w3.org/1999/xlink" version="1.1" enable-background="new 0 0 0 0" xml:space="preserve" width="100" height="100" style=""><rect id="backgroundrect" width="100%" height="100%" x="0" y="0" fill="none" stroke="none"/>
  
  
  
<g class="currentLayer" style=""><title>Layer 1</title><circle fill="green" stroke="none" cx="14.91304349899292" cy="81.52173829078674" r="13" id="svg_1" class="">
    <animate attributeName="opacity" dur="1s" values="0;1;0" repeatCount="indefinite" begin="0.1"/>
  </circle><circle fill="green" stroke="none" cx="49.91304349899292" cy="81.52173829078674" r="13" id="svg_2" class="">
    <animate attributeName="opacity" dur="1s" values="0;1;0" repeatCount="indefinite" begin="0.2"/>
  </circle><circle fill="green" stroke="none" cx="84.91304349899292" cy="81.52173829078674" r="13" id="svg_3" class="">
    <animate attributeName="opacity" dur="1s" values="0;1;0" repeatCount="indefinite" begin="0.3"/>
  </circle><g class="" id="surface1">
<path style=" stroke:none;fill-rule:nonzero;fill:rgb(0%,49.01886%,77.255249%);fill-opacity:1;" d="M90.5361592885437,43.22894620895386 C89.7119402885437,38.31878920895383 88.0478782885437,33.701602208953894 85.7041282885437,29.549258208953862 L16.5947532885437,29.549258208953862 C14.2510032885437,33.701602208953894 12.586940288543701,38.31878920895383 11.762721288543702,43.22894620895386 L90.5361592885437,43.22894620895386 " id="svg_6"/>
<path style=" stroke:none;fill-rule:nonzero;fill:rgb(0%,49.01886%,77.255249%);fill-opacity:1;" d="M68.9775652885437,13.221133208953857 C63.6103782885437,10.451602208953886 57.5556902885437,8.893008208953859 51.1494402885437,8.893008208953859 C44.8056902885437,8.893008208953859 38.8017842885437,10.424258208953859 33.4697532885437,13.143008208953857 L33.4697532885437,13.275821208953857 L68.9775652885437,13.275821208953857 L68.9775652885437,13.221133208953857 " id="svg_8"/>
<path style=" stroke:none;fill-rule:nonzero;fill:rgb(0%,49.01886%,77.255249%);fill-opacity:1;" d="M80.5713152885437,22.24066420895383 C78.0517842885437,19.41253920895383 75.1572532885437,16.94769620895386 71.9697532885437,14.932071208953857 L30.3291282885437,14.932071208953857 C27.137721288543702,16.94769620895386 24.247096288543702,19.41253920895383 21.7275652885437,22.24066420895383 L80.5713152885437,22.24066420895383 " id="svg_10"/>
<path style=" stroke:none;fill-rule:nonzero;fill:rgb(0%,49.01886%,77.255249%);fill-opacity:1;" d="M17.4306902885437,27.893008208953862 L84.8681902885437,27.893008208953862 C84.0127212885437,26.502383208953862 83.0713152885437,25.170352208953886 82.0635032885437,23.89691420895383 L20.2353782885437,23.89691420895383 C19.2275652885437,25.170352208953886 18.2900652885437,26.502383208953862 17.4306902885437,27.893008208953862 " id="svg_12"/>
<path style=" stroke:none;fill-rule:nonzero;fill:rgb(0%,35.68573%,19.215393%);fill-opacity:1;" d="M86.8564712885437,35.76800820895386 C85.8720962885437,34.75628920895383 83.7470962885437,35.30316420895383 81.1845962885437,33.70941420895383 C80.2783462885437,33.14691420895383 79.5752212885437,32.84613320895386 78.9580342885437,32.83441420895383 C78.9033462885437,32.83050820895386 78.8447532885437,32.83441420895383 78.7939712885437,32.83441420895383 C78.2939712885437,32.857852208953894 77.8447532885437,33.01019620895386 77.3760032885437,33.22503920895383 C76.4931902885437,33.717227208953894 75.7900652885437,34.61957120895386 75.2314712885437,35.63519620895386 C74.7510032885437,35.79535220895389 75.0947532885437,35.92425820895386 73.7900652885437,34.76800820895386 L72.4697532885437,34.41644620895386 C72.0791282885437,33.94769620895386 71.1494402885437,31.42425820895386 69.8760032885437,29.63128920895383 C68.3135032885437,27.310977208953886 65.5986592885437,23.525821208953857 62.9541282885437,21.353946208953857 C59.6494402885437,18.88128920895383 57.4502212885437,19.935977208953886 55.3135032885437,21.13128920895383 C53.1650652885437,22.326602208953886 51.8330342885437,24.197696208953857 49.7392842885437,25.39300820895386 C47.4853782885437,26.143008208953862 46.5049092885437,27.23675820895386 46.5049092885437,27.23675820895386 C46.5049092885437,27.23675820895386 45.7783462885437,27.16253920895383 44.9814712885437,26.295352208953886 C44.1885032885437,25.42816420895383 43.0361592885437,26.143008208953862 40.7861592885437,27.45941420895383 C38.5439712885437,28.775821208953857 38.7470962885437,28.518008208953862 36.2783462885437,29.342227208953886 C33.0986592885437,30.88128920895383 32.0556902885437,33.26019620895386 31.7431902885437,34.25628920895383 C31.8681902885437,33.701602208953894 30.122096288543702,35.09613320895386 29.481471288543702,34.94769620895386 C29.262721288543702,34.61957120895386 29.0205342885437,34.28363320895386 28.7588152885437,33.951602208953894 C27.762721288543702,32.701602208953894 26.5517842885437,31.514102208953886 25.7744402885437,31.08441420895383 C24.872096288543702,30.588321208953857 23.9775652885437,30.752383208953862 23.575221288543702,30.869571208953857 C23.559596288543702,30.873477208953886 23.5478782885437,30.877383208953862 23.528346288543702,30.88128920895383 C23.512721288543702,30.889102208953886 23.4931902885437,30.893008208953862 23.4775652885437,30.89691420895383 C21.434596288543702,31.61566420895383 20.7549092885437,34.10394620895386 18.9931902885437,34.20550820895386 C17.4424092885437,34.29925820895386 15.700221288543702,35.00628920895383 14.2392842885437,36.38519620895386 C19.7236592885437,20.79925820895386 34.2002212885437,9.643008208953859 51.1494402885437,9.643008208953859 C68.1064712885437,9.643008208953859 82.5830342885437,20.807071208953857 88.0635032885437,36.40082120895386 C87.6299092885437,36.30316420895383 87.1924092885437,36.11566420895383 86.8564712885437,35.76800820895386 zM31.7236592885437,34.31878920895383 C31.7236592885437,34.31878920895383 31.7236592885437,34.31878920895383 31.7236592885437,34.31488320895386 zM51.1494402885437,8.146914208953833 C28.7041282885437,8.146914208953833 10.446315288543701,27.02191420895383 10.446315288543701,50.22503920895383 C10.446315288543701,52.385196208953865 10.602565288543701,54.55316420895383 10.915065288543701,56.65863320895386 L11.0166282885437,57.295352208953894 L91.2861592885437,57.295352208953894 L91.3720962885437,56.65863320895386 C91.6924092885437,54.55316420895383 91.8486592885437,52.389102208953894 91.8486592885437,50.22503920895383 C91.8486592885437,27.02191420895383 73.5908462885437,8.146914208953833 51.1494402885437,8.146914208953833 " id="svg_14"/>
<path style=" stroke:none;fill-rule:nonzero;fill:rgb(0%,35.68573%,19.215393%);fill-opacity:1;" d="M91.9072532885437,58.02972720895389 L10.305690288543701,58.02972720895389 C9.805690288543701,55.342227208953894 9.5478782885437,52.592227208953894 9.5478782885437,49.83050820895386 C9.5478782885437,26.135196208953857 28.1924092885437,6.865664208953832 51.1103782885437,6.865664208953832 C74.0244402885437,6.865664208953832 92.6650652885437,26.135196208953857 92.6650652885437,49.83050820895386 C92.6650652885437,52.588321208953865 92.4150652885437,55.342227208953894 91.9072532885437,58.02972720895389 zM51.1103782885437,5.869571208953857 C27.6611592885437,5.869571208953857 8.586940288543701,25.596133208953862 8.586940288543701,49.83050820895386 C8.586940288543701,52.78753920895383 8.8760032885437,55.75238320895386 9.4385032885437,58.62738320895386 L9.512721288543702,59.01800820895386 L92.6963152885437,59.01800820895386 L92.7744402885437,58.62738320895386 C93.3447532885437,55.748477208953894 93.6260032885437,52.78753920895383 93.6260032885437,49.83050820895386 C93.6260032885437,25.596133208953862 74.5556902885437,5.869571208953857 51.1103782885437,5.869571208953857 " id="svg_16"/>
<path style=" stroke:none;fill-rule:nonzero;fill:rgb(100%,100%,100%);fill-opacity:1;" d="M44.2392842885437,45.22503920895383 C37.9150652885437,44.619571208953865 75.1377212885437,40.16253920895383 75.2314712885437,35.63519620895386 C75.1728782885437,35.654727208953894 75.1220962885437,35.65863320895386 75.0361592885437,35.67425820895386 C74.6455342885437,36.09613320895386 72.9306902885437,36.873477208953894 71.6181902885437,37.31878920895383 C64.5869402885437,39.701602208953894 40.8174092885437,42.86175820895386 38.6650652885437,43.435977208953894 C37.4033462885437,43.77191420895383 32.7041282885437,44.807071208953865 34.9463152885437,46.85003920895382 C35.9424092885437,47.76019620895386 38.3135032885437,47.69378920895383 40.0244402885437,47.92035220895389 C43.9306902885437,48.42816420895383 62.3056902885437,48.01410220895389 51.7197532885437,50.44769620895386 C48.3603782885437,51.22503920895383 45.0556902885437,52.15863320895386 41.7197532885437,52.99066420895383 C40.0322532885437,53.40863320895386 29.934596288543702,55.889102208953894 23.6260032885437,57.498477208953894 L47.3877212885437,57.498477208953894 C51.2041282885437,56.07269620895386 58.6377212885437,52.47503920895383 63.0478782885437,50.33832120895386 C70.8486592885437,46.55707120895386 55.1103782885437,46.260196208953865 44.2392842885437,45.22503920895383 " id="svg_18"/>
<path style=" stroke:none;fill-rule:nonzero;fill:rgb(0%,35.68573%,19.215393%);fill-opacity:1;" d="M152.3017842885437,50.52582120895386 C151.6572532885437,50.951602208953894 150.9072532885437,51.20941420895383 150.1806902885437,51.23675820895386 C147.7392842885437,51.228946208953865 146.2705342885437,49.12347720895389 147.0595962885437,46.900821208953865 C147.8525652885437,44.68207120895386 150.5713152885437,43.68207120895386 150.5713152885437,43.68207120895386 C151.0595962885437,43.482852208953894 151.6885032885437,43.26410220895389 152.3095962885437,43.10394620895386 zM162.96584628854373,54.04535220895389 L162.96584628854373,36.01410220895389 L162.9619402885437,36.01019620895386 C162.9619402885437,26.264102208953886 158.27834628854373,21.814883208953862 151.6533462885437,21.81878920895383 C148.3291282885437,21.81878920895383 145.5986592885437,22.502383208953862 143.7041282885437,23.185977208953886 L140.7588152885437,31.670352208953886 C140.7588152885437,31.670352208953886 152.3330342885437,26.217227208953886 152.3330342885437,35.07660220895389 L152.3330342885437,35.61566420895383 C152.3330342885437,35.61566420895383 152.3291282885437,35.61566420895383 152.3291282885437,35.61566420895383 C152.3291282885437,35.61566420895383 137.6416282885437,37.857852208953894 137.3291282885437,49.33441420895383 C137.3252212885437,49.45941420895383 137.3252212885437,50.01410220895389 137.3252212885437,50.14300820895386 C137.3252212885437,50.14300820895386 137.3252212885437,50.14300820895386 137.3291282885437,50.14300820895386 C137.1767842885437,54.994571208953865 140.8955342885437,58.994571208953865 146.4736592885437,59.01800820895386 C148.4658462885437,58.947696208953865 150.5205342885437,58.24066420895383 152.2900652885437,57.06878920895383 L152.2900652885437,59.02191420895383 L164.36428428854367,59.02191420895383 C163.4775652885437,57.576602208953894 162.96584628854373,55.873477208953894 162.96584628854373,54.04535220895389 " id="svg_20"/>
<path style=" stroke:none;fill-rule:nonzero;fill:rgb(0%,35.68573%,19.215393%);fill-opacity:1;" d="M280.84865928854373,50.52582120895386 C280.2002212885437,50.951602208953894 279.4502212885437,51.20941420895383 278.72365928854373,51.23675820895386 C276.2783462885437,51.228946208953865 274.8135032885437,49.12347720895389 275.6064712885437,46.900821208953865 C276.39553428854373,44.68207120895386 279.11428428854373,43.68207120895386 279.11428428854373,43.68207120895386 C279.6064712885437,43.482852208953894 280.2314712885437,43.26410220895389 280.8525652885437,43.10394620895386 zM291.5088152885437,54.04535220895389 L291.5088152885437,36.01019620895386 C291.50490928854373,26.264102208953886 286.8252212885437,21.814883208953862 280.19240928854373,21.81878920895383 C276.8720962885437,21.81878920895383 274.14553428854373,22.502383208953862 272.2510032885437,23.185977208953886 L269.3056902885437,31.670352208953886 C269.3056902885437,31.670352208953886 280.8760032885437,26.217227208953886 280.8760032885437,35.07660220895389 L280.8760032885437,35.61566420895383 C280.8760032885437,35.61566420895383 280.8760032885437,35.61566420895383 280.8720962885437,35.61566420895383 C280.8720962885437,35.61566420895383 266.1885032885437,37.857852208953894 265.8681902885437,49.33441420895383 C265.8681902885437,49.45941420895383 265.86428428854373,50.01410220895389 265.86428428854373,50.14300820895386 C265.86428428854373,50.14300820895386 265.8681902885437,50.14300820895386 265.8760032885437,50.14300820895386 C265.7197532885437,54.994571208953865 269.4385032885437,58.994571208953865 275.02053428854373,59.01800820895386 C277.0127212885437,58.947696208953865 279.0635032885437,58.24066420895383 280.8369402885437,57.06878920895383 L280.8369402885437,59.02191420895383 L292.9072532885437,59.02191420895383 C292.02053428854373,57.576602208953894 291.5088152885437,55.873477208953894 291.5088152885437,54.04535220895389 " id="svg_22"/>
<path style=" stroke:none;fill-rule:nonzero;fill:rgb(0%,35.68573%,19.215393%);fill-opacity:1;" d="M133.3603782885437,19.885196208953857 C131.9072532885437,18.45941420895383 130.6142842885437,17.44378920895383 129.4892842885437,16.84613320895386 C128.3564712885437,16.24066420895383 127.1845962885437,15.939883208953859 125.9775652885437,15.939883208953859 C124.8252212885437,15.939883208953859 123.8838152885437,16.30316420895383 123.1494402885437,17.02191420895383 C122.4150652885437,17.74066420895383 122.0478782885437,18.670352208953886 122.0478782885437,19.78363320895386 C122.0478782885437,20.97113320895386 122.3056902885437,22.03363320895386 122.8291282885437,22.978946208953857 C123.3525652885437,23.900821208953857 124.2783462885437,24.97113320895386 125.6142842885437,26.19378920895383 C128.8486592885437,29.16253920895383 131.1963152885437,31.92816420895383 132.6611592885437,34.52582120895386 C134.1260032885437,37.08441420895383 134.8642842885437,39.73675820895386 134.8642842885437,42.47503920895383 C134.8642842885437,47.326602208953894 133.4970962885437,51.291446208953865 130.7588152885437,54.385196208953865 C128.0166282885437,57.47503920895383 124.4931902885437,59.02191420895383 120.1845962885437,59.02191420895383 C118.0713152885437,59.02191420895383 116.2900652885437,58.85003920895382 114.8525652885437,58.51800820895386 C113.4111592885437,58.17035220895389 111.6416282885437,57.51800820895386 109.5713152885437,56.55316420895383 L109.5713152885437,43.46332120895386 C110.5908462885437,45.08832120895386 111.9228782885437,46.41253920895383 113.5674092885437,47.43207120895386 C115.2119402885437,48.44769620895386 116.8213152885437,48.963321208953865 118.3955342885437,48.963321208953865 C119.6845962885437,48.963321208953865 120.7275652885437,48.50238320895386 121.5361592885437,47.592227208953894 C122.3408462885437,46.685977208953894 122.7470962885437,45.51019620895386 122.7470962885437,44.06097720895389 C122.7470962885437,42.607852208953894 122.4619402885437,41.33832120895386 121.8838152885437,40.23675820895386 C121.3213152885437,39.17035220895389 120.3017842885437,37.951602208953894 118.8174092885437,36.592227208953894 C115.6806902885437,33.717227208953894 113.3955342885437,31.06878920895383 111.9619402885437,28.635196208953857 C110.5322532885437,26.22113320895386 109.8174092885437,23.791446208953857 109.8174092885437,21.33441420895383 C109.8174092885437,16.79535220895389 111.1377212885437,13.084414208953831 113.7744402885437,10.197696208953856 C116.4111592885437,7.3148832089538605 119.7978782885437,5.8734772089538865 123.9385032885437,5.8734772089538865 C125.4697532885437,5.8734772089538865 127.1103782885437,6.0609772089538865 128.8877212885437,6.447696208953857 C130.6650652885437,6.834414208953831 132.1494402885437,7.31878920895383 133.3603782885437,7.912539208953833 L133.3603782885437,19.885196208953857 " id="svg_24"/>
<path style=" stroke:none;fill-rule:nonzero;fill:rgb(0%,49.01886%,77.255249%);fill-opacity:1;" d="M207.30959628854367,18.166446208953857 C210.7041282885437,18.166446208953857 213.45803428854373,15.416446208953857 213.45803428854373,12.018008208953859 C213.45803428854373,8.623477208953886 210.7041282885437,5.8734772089538865 207.30959628854367,5.8734772089538865 C203.9150652885437,5.8734772089538865 201.1650652885437,8.623477208953886 201.1650652885437,12.018008208953859 C201.1650652885437,15.416446208953857 203.9150652885437,18.166446208953857 207.30959628854367,18.166446208953857 " id="svg_26"/>
<path style=" stroke:none;fill-rule:nonzero;fill:rgb(0%,35.68573%,19.215393%);fill-opacity:1;" d="M212.6260032885437,26.795352208953886 C212.6260032885437,24.967227208953886 213.1416282885437,23.260196208953857 214.0322532885437,21.814883208953862 L200.59084628854367,21.814883208953862 C201.48147128854367,23.260196208953857 201.9931902885437,24.967227208953886 201.9931902885437,26.795352208953886 L201.9931902885437,54.04535220895389 C201.9931902885437,55.873477208953894 201.48147128854367,57.576602208953894 200.5947532885437,59.02191420895383 L214.02834628854367,59.02191420895383 C213.1416282885437,57.576602208953894 212.6260032885437,55.873477208953894 212.6260032885437,54.04535220895389 L212.6260032885437,26.795352208953886 " id="svg_28"/>
<path style=" stroke:none;fill-rule:nonzero;fill:rgb(0%,35.68573%,19.215393%);fill-opacity:1;" d="M196.3760032885437,54.04535220895389 L196.3760032885437,31.572696208953857 C196.3760032885437,31.518008208953862 196.3760032885437,31.467227208953886 196.3760032885437,31.416446208953857 L196.3760032885437,31.18988320895386 L196.3681902885437,31.19378920895383 C196.08303428854373,22.08441420895383 187.21584628854367,21.81878920895383 187.21584628854367,21.81878920895383 C182.2900652885437,21.81878920895383 179.9463152885437,24.029727208953886 179.21584628854373,24.900821208953857 L179.21584628854373,21.81878920895383 L167.18459628854373,21.81878920895383 C168.0713152885437,23.264102208953886 168.5869402885437,24.967227208953886 168.5869402885437,26.795352208953886 L168.5869402885437,54.04535220895389 C168.5869402885437,55.873477208953894 168.0713152885437,57.576602208953894 167.18459628854373,59.02191420895383 L180.6181902885437,59.02191420895383 C179.73147128854373,57.576602208953894 179.21584628854373,55.873477208953894 179.21584628854373,54.04535220895389 L179.21584628854373,32.951602208953894 C180.1416282885437,32.19378920895383 181.29397128854367,31.764102208953886 182.52053428854373,31.764102208953886 C183.6338152885437,31.764102208953886 184.48147128854367,32.22113320895386 185.0713152885437,33.14300820895386 C185.65334628854367,34.06097720895389 185.7431902885437,35.31878920895383 185.7431902885437,37.02191420895383 L185.7431902885437,54.04535220895389 C185.7431902885437,55.873477208953894 185.23147128854367,57.576602208953894 184.3447532885437,59.02191420895383 L197.7744402885437,59.02191420895383 C196.88772128854367,57.576602208953894 196.3760032885437,55.873477208953894 196.3760032885437,54.04535220895389 " id="svg_30"/>
<path style=" stroke:none;fill-rule:nonzero;fill:rgb(0%,35.68573%,19.215393%);fill-opacity:1;" d="M251.10647128854367,59.02191420895383 L264.5400652885437,59.02191420895383 C263.6494402885437,57.576602208953894 263.1377212885437,55.873477208953894 263.1377212885437,54.04535220895389 L263.1377212885437,31.572696208953857 L263.1416282885437,31.572696208953857 C263.1416282885437,31.518008208953862 263.1416282885437,31.467227208953886 263.1377212885437,31.416446208953857 L263.1377212885437,31.18988320895386 L263.1338152885437,31.19378920895383 C262.84865928854373,22.08441420895383 253.9775652885437,21.81878920895383 253.9775652885437,21.81878920895383 C253.97365928854373,21.81878920895383 253.9697532885437,21.81878920895383 253.96584628854367,21.81878920895383 C253.0791282885437,21.783633208953862 247.98928428854373,21.783633208953862 244.4541282885437,25.846133208953862 C241.8291282885437,21.967227208953886 236.87209628854367,21.81878920895383 236.87209628854367,21.81878920895383 C231.9541282885437,21.81878920895383 229.6103782885437,24.029727208953886 228.87990928854373,24.900821208953857 L228.87990928854373,21.81878920895383 L216.8447532885437,21.81878920895383 C217.73147128854367,23.264102208953886 218.2510032885437,24.967227208953886 218.2510032885437,26.795352208953886 L218.2510032885437,54.04535220895389 C218.2510032885437,55.873477208953894 217.7353782885437,57.576602208953894 216.8447532885437,59.02191420895383 L230.27834628854367,59.02191420895383 C229.3916282885437,57.576602208953894 228.87990928854373,55.873477208953894 228.87990928854373,54.04535220895389 L228.87990928854373,32.951602208953894 C229.80178428854373,32.19378920895383 230.9541282885437,31.764102208953886 232.18459628854367,31.764102208953886 C233.29397128854367,31.764102208953886 234.14553428854373,32.22113320895386 234.73147128854367,33.14300820895386 C235.3135032885437,34.06097720895389 235.40334628854367,35.31878920895383 235.40334628854367,37.02191420895383 L235.40334628854367,54.04535220895389 C235.40334628854367,55.873477208953894 234.8916282885437,57.576602208953894 234.0010032885437,59.02191420895383 L247.4385032885437,59.02191420895383 C246.55178428854373,57.576602208953894 246.03615928854373,55.873477208953894 246.03615928854373,54.04535220895389 L246.03615928854373,32.91253920895383 C246.95022128854367,32.17816420895383 248.0791282885437,31.764102208953886 249.28615928854373,31.764102208953886 C250.39553428854373,31.764102208953886 251.2431902885437,32.22113320895386 251.83303428854373,33.14300820895386 C252.4150652885437,34.06097720895389 252.5088152885437,35.31878920895383 252.5088152885437,37.02191420895383 L252.5088152885437,54.04535220895389 C252.5088152885437,55.873477208953894 251.98928428854373,57.576602208953894 251.10647128854367,59.02191420895383 " id="svg_32"/>
<path style=" stroke:none;fill-rule:nonzero;fill:rgb(0%,49.01886%,77.255249%);fill-opacity:1;" d="M351.0635032885437,50.52582120895386 C350.4228782885437,50.951602208953894 349.6728782885437,51.20941420895383 348.94240928854373,51.23675820895386 C346.5010032885437,51.228946208953865 345.03615928854373,49.12347720895389 345.8252212885437,46.900821208953865 C346.61428428854373,44.68207120895386 349.3369402885437,43.68207120895386 349.3369402885437,43.68207120895386 C349.8213152885437,43.482852208953894 350.4463152885437,43.26410220895389 351.06740928854373,43.10394620895386 zM361.7275652885437,54.04535220895389 L361.7275652885437,36.01019620895386 C361.72365928854373,26.264102208953886 357.0400652885437,21.814883208953862 350.41115928854373,21.81878920895383 C347.0908462885437,21.81878920895383 344.3603782885437,22.502383208953862 342.47365928854373,23.185977208953886 L339.5244402885437,31.670352208953886 C339.5244402885437,31.670352208953886 351.0947532885437,26.217227208953886 351.0947532885437,35.07660220895389 L351.0947532885437,35.61566420895383 C351.0947532885437,35.61566420895383 336.4033462885437,37.857852208953894 336.0908462885437,49.33441420895383 C336.0869402885437,49.45941420895383 336.08303428854373,50.01410220895389 336.08303428854373,50.14300820895386 C336.08303428854373,50.14300820895386 336.0908462885437,50.14300820895386 336.0947532885437,50.14300820895386 C335.9385032885437,54.994571208953865 339.6572532885437,58.994571208953865 345.2353782885437,59.01800820895386 C347.2314712885437,58.947696208953865 349.28615928854373,58.24066420895383 351.0556902885437,57.06878920895383 L351.0556902885437,59.02191420895383 L363.1260032885437,59.02191420895383 C362.23928428854373,57.576602208953894 361.7275652885437,55.873477208953894 361.7275652885437,54.04535220895389 " id="svg_34"/>
<path style=" stroke:none;fill-rule:nonzero;fill:rgb(0%,49.01886%,77.255249%);fill-opacity:1;" d="M395.1377212885437,54.04535220895389 L395.1377212885437,31.572696208953857 C395.1377212885437,31.518008208953862 395.1377212885437,31.467227208953886 395.1377212885437,31.416446208953857 L395.1377212885437,31.18988320895386 L395.1338152885437,31.19378920895383 C394.84865928854373,22.08441420895383 385.97365928854373,21.81878920895383 385.97365928854373,21.81878920895383 C381.0556902885437,21.81878920895383 378.70803428854373,24.029727208953886 377.9775652885437,24.900821208953857 L377.9775652885437,21.81878920895383 L365.94240928854373,21.81878920895383 C366.8291282885437,23.264102208953886 367.34865928854373,24.967227208953886 367.34865928854373,26.795352208953886 L367.34865928854373,54.04535220895389 C367.34865928854373,55.873477208953894 366.83303428854373,57.576602208953894 365.9463152885437,59.02191420895383 L379.37990928854373,59.02191420895383 C378.4931902885437,57.576602208953894 377.9775652885437,55.873477208953894 377.9775652885437,54.04535220895389 L377.9775652885437,32.951602208953894 C378.8994402885437,32.19378920895383 380.0595962885437,31.764102208953886 381.28615928854373,31.764102208953886 C382.39553428854373,31.764102208953886 383.23928428854373,32.22113320895386 383.83303428854373,33.14300820895386 C384.41115928854373,34.06097720895389 384.50490928854373,35.31878920895383 384.50490928854373,37.02191420895383 L384.50490928854373,54.04535220895389 C384.50490928854373,55.873477208953894 383.98928428854373,57.576602208953894 383.1025652885437,59.02191420895383 L396.5400652885437,59.02191420895383 C395.6494402885437,57.576602208953894 395.1377212885437,55.873477208953894 395.1377212885437,54.04535220895389 " id="svg_36"/>
<path style=" stroke:none;fill-rule:nonzero;fill:rgb(0%,49.01886%,77.255249%);fill-opacity:1;" d="M319.27053428854373,47.74457120895386 C317.8564712885437,49.04535220895389 315.8408462885437,49.685977208953894 313.2275652885437,49.685977208953894 L313.03615928854373,49.685977208953894 L313.03615928854373,35.623477208953894 L313.1728782885437,35.623477208953894 C315.8095962885437,35.623477208953894 317.8447532885437,36.19378920895383 319.2588152885437,37.342227208953894 C320.6806902885437,38.482852208953894 321.3838152885437,40.11957120895386 321.3838152885437,42.24066420895383 C321.3838152885437,44.62738320895386 320.6885032885437,46.46332120895386 319.27053428854373,47.74457120895386 zM313.7314712885437,14.705508208953857 C315.8095962885437,14.705508208953857 317.41115928854373,15.213321208953857 318.5478782885437,16.23675820895386 C319.6806902885437,17.25238320895386 320.2470962885437,18.70941420895383 320.2470962885437,20.61566420895383 C320.2470962885437,22.74066420895383 319.6494402885437,24.38128920895383 318.4658462885437,25.525821208953857 C317.2666282885437,26.66253920895383 315.5908462885437,27.24066420895383 313.39553428854373,27.24066420895383 L313.03615928854373,27.24066420895383 L313.03615928854373,14.705508208953857 zM329.05178428854373,32.36566420895383 C328.02053428854373,31.50628920895383 326.8447532885437,30.768008208953862 325.4853782885437,30.15863320895386 C326.1103782885437,29.81878920895383 326.6963152885437,29.432071208953857 327.2158462885437,29.00238320895386 C330.0869402885437,26.689883208953862 331.5244402885437,23.42425820895386 331.5244402885437,19.185977208953886 C331.5244402885437,15.021914208953831 330.0713152885437,11.764102208953886 327.1416282885437,9.404727208953886 C324.2197532885437,7.05316420895383 320.1572532885437,5.8734772089538865 314.9853782885437,5.8734772089538865 L300.11428428854373,5.8734772089538865 C301.00490928854373,7.31878920895383 301.52053428854373,9.021914208953833 301.52053428854373,10.850039208953831 L301.52053428854373,54.04535220895389 C301.52053428854373,55.873477208953894 301.00490928854373,57.576602208953894 300.1181902885437,59.02191420895383 L315.9345962885437,59.02191420895383 C321.64553428854373,59.02191420895383 326.0556902885437,57.701602208953894 329.16115928854373,55.04925820895386 C332.2627212885437,52.40472720895389 333.8135032885437,48.619571208953865 333.8135032885437,43.70941420895383 C333.8135032885437,38.79535220895389 332.22365928854373,35.01410220895389 329.05178428854373,32.36566420895383 " id="svg_38"/>
<path style=" stroke:none;fill-rule:nonzero;fill:rgb(0%,49.01886%,77.255249%);fill-opacity:1;" d="M430.90725328854364,55.482852208953894 C429.3564712885436,53.34613320895386 426.8486592885438,49.78363320895386 423.3955342885438,44.79925820895386 L419.4931902885437,39.18207120895386 L420.9150652885437,37.14691420895383 C424.3681902885437,32.31488320895386 428.6455342885438,27.728946208953857 430.31350328854364,25.60003920895383 C431.9775652885437,23.47503920895383 433.1455342885438,22.213321208953857 433.7861592885438,21.81878920895383 L420.0908462885436,21.81878920895383 C420.03225328854364,23.010196208953857 419.84475328854364,24.09613320895386 419.4931902885437,25.06878920895383 C419.1494402885437,26.041446208953857 418.5908462885436,27.123477208953886 417.8095962885436,28.291446208953857 L411.39162828854364,36.61566420895383 L411.39162828854364,10.850039208953831 C411.39162828854364,9.021914208953833 411.9033462885436,7.31878920895383 412.7900652885437,5.8734772089538865 L399.3525652885437,5.8734772089538865 C400.2431902885437,7.31878920895383 400.7588152885437,9.021914208953833 400.7588152885437,10.850039208953831 L400.7588152885437,54.04535220895389 C400.7588152885437,55.873477208953894 400.2431902885437,57.576602208953894 399.3564712885437,59.02191420895383 L412.7900652885437,59.02191420895383 C411.8994402885437,57.576602208953894 411.39162828854364,55.873477208953894 411.39162828854364,54.04535220895389 L411.39162828854364,44.15082120895386 L418.4931902885437,55.764102208953894 C418.6650652885437,56.05316420895383 418.8681902885437,56.44769620895386 419.1064712885436,56.932071208953865 C419.3486592885438,57.416446208953865 419.6806902885437,58.11566420895383 420.07912828854364,59.02191420895383 L433.7861592885438,59.02191420895383 C433.43850328854364,58.80316420895383 432.4775652885437,57.619571208953865 430.90725328854364,55.482852208953894 " id="svg_40"/>
</g></g></svg>